<svg width="168" height="168" viewBox="0 0 168 168" fill="none" xmlns="http://www.w3.org/2000/svg">
<g clip-path="url(#clip0_3_57)">
<path fill-rule="evenodd" clip-rule="evenodd" d="M83.743 0C37.494 0 0 37.493 0 83.742C0 129.993 37.494 167.483 83.743 167.483C129.997 167.483 167.487 129.993 167.487 83.742C167.487 37.496 129.997 0.00399998 83.742 0.00399998L83.743 0ZM114.967 122.51C117.427 124.02 120.647 123.24 122.147 120.78C123.657 118.32 122.877 115.11 120.417 113.6C98.343 100.11 70.98 96.972 39.08 104.26C36.264 104.9 34.511 107.7 35.154 110.51C35.794 113.32 38.594 115.08 41.403 114.44C70.553 107.78 95.305 110.5 114.967 122.51ZM123.417 100.13C126.487 102.02 130.507 101.05 132.397 97.978C134.287 94.912 133.317 90.893 130.247 89.003C104.397 73.118 66.588 68.648 36.175 77.876C32.728 78.926 30.781 82.566 31.821 86.019C32.869 89.466 36.516 91.412 39.969 90.369C66.594 82.287 100.907 86.294 123.417 100.13ZM35.988 64.55C61.757 56.729 106.287 58.203 133.277 74.234H133.281C136.991 76.444 141.811 75.217 144.011 71.495C146.221 67.778 145.001 62.971 141.271 60.762C110.197 42.315 61.022 40.58 31.441 49.56C27.3 50.818 24.966 55.191 26.22 59.331C27.474 63.469 31.85 65.805 35.988 64.55Z" fill="#FFAB05"/>
<path fill-rule="evenodd" clip-rule="evenodd" d="M115.207 112.563L113.687 116H108.564L104.828 107.9C108.405 109.226 111.865 110.781 115.207 112.563Z" fill="#1ED760"/>
<path d="M144 47.4286H136.315L127.068 68.3831C129.229 69.3749 131.319 70.441 133.322 71.5838L144 47.4286Z" fill="#1ED760"/>
<path d="M72.1962 46.2643C67.0623 47 62.1062 49.1643 58.0432 52.7143C57.0008 50.8107 55.5527 49.4536 53.7027 48.6429C52.4396 48.0918 50.8548 47.7272 48.9506 47.5513C48.0656 47.4696 47.1117 47.4286 46.0889 47.4286H32V51.7143H33.4231C37.4079 51.7143 40.0407 52.8822 41.3215 55.2143C42.0541 56.5504 42.5772 58.2978 42.8908 60.458C49.1704 59.117 56.1554 58.2359 63.487 57.8613C66.1934 56.1453 69.6433 55.2857 73.8399 55.2857C76.4789 55.2857 78.8132 56.1637 80.8429 57.9166C80.9284 57.9905 82.6947 60.2409 82.7462 60.3415C83.3129 61.4197 94.4157 85.3755 95.0297 86.657C104.862 88.8007 114.172 92.1867 122.205 96.7309L125.884 88.4106C123.859 87.2907 121.77 86.2372 119.624 85.2512L116.961 91.2857L102.862 60.72C100.001 55.4665 96.7549 51.8 93.1232 49.7143C90.1399 48.0048 86.671 46.8848 82.7167 46.3555C80.0535 46.1856 77.3993 46.0776 74.7658 46.0293C73.8952 46.0708 73.0399 46.1542 72.1962 46.2643Z" fill="#1ED760"/>
<path d="M61.7433 111.255C55.7957 111.725 49.6264 112.65 43.2427 114.031V77.7913C49.2309 76.3932 55.4447 75.498 61.7433 75.0886V111.255Z" fill="#1ED760"/>
</g>
<defs>
<clipPath id="clip0_3_57">
<rect width="167.487" height="167.483" fill="white"/>
</clipPath>
</defs>
</svg>
